<svg width="861" height="606" viewBox="0 0 861 606" fill="none" xmlns="http://www.w3.org/2000/svg">
<path d="M216.506 114.405C134.655 4.6762 410.55 -36.4084 537.654 46.0954C673.025 133.965 438.66 144.256 458.738 202.069C476.792 254.053 544.853 236.639 587.123 222.503C636.233 206.079 768.558 202.269 842.562 328.976C916.566 455.683 720.028 434.022 651.831 404.435C583.633 374.848 523.298 381.236 503.687 504.454C480.179 652.156 212.557 609.5 105.308 545.345C-112.889 414.823 62.5457 258.913 193.234 260.626C297.231 261.989 282.105 202.347 216.506 114.405Z" fill="url(#paint0_linear_1_3064)" fill-opacity="0.6" stroke="#C991FD" stroke-width="3"/>
<defs>
<linearGradient id="paint0_linear_1_3064" x1="525" y1="-14" x2="314.598" y2="522.395" gradientUnits="userSpaceOnUse">
<stop stop-color="#914FFB"/>
<stop offset="1" stop-color="#FA31FE"/>
</linearGradient>
</defs>
</svg>
